<mxfile host="Electron" agent="Mozilla/5.0 (Windows NT 10.0; Win64; x64) AppleWebKit/537.36 (KHTML, like Gecko) draw.io/24.7.5 Chrome/126.0.6478.183 Electron/31.3.0 Safari/537.36" version="24.7.5">
  <diagram name="Page-1" id="kYyLta8YQiJNTjLsi9yw">
    <mxGraphModel dx="668" dy="391" grid="1" gridSize="10" guides="1" tooltips="1" connect="1" arrows="1" fold="1" page="1" pageScale="1" pageWidth="850" pageHeight="1100" math="0" shadow="0">
      <root>
        <mxCell id="0" />
        <mxCell id="1" parent="0" />
        <mxCell id="fmsruUyn6PjPIy5HjAz1-1" value="" style="verticalLabelPosition=bottom;html=1;verticalAlign=top;align=center;strokeColor=none;fillColor=#00BEF2;shape=mxgraph.azure.laptop;pointerEvents=1;" parent="1" vertex="1">
          <mxGeometry x="190" y="180" width="100" height="60" as="geometry" />
        </mxCell>
        <mxCell id="fmsruUyn6PjPIy5HjAz1-2" value="" style="verticalLabelPosition=bottom;html=1;verticalAlign=top;align=center;strokeColor=none;fillColor=#00BEF2;shape=mxgraph.azure.laptop;pointerEvents=1;" parent="1" vertex="1">
          <mxGeometry x="375" y="180" width="100" height="60" as="geometry" />
        </mxCell>
        <mxCell id="fmsruUyn6PjPIy5HjAz1-3" value="&lt;font style=&quot;font-size: 8px;&quot;&gt;aws account&lt;/font&gt;" style="whiteSpace=wrap;html=1;aspect=fixed;fillColor=#6a00ff;strokeColor=#3700CC;fontColor=#ffffff;" parent="1" vertex="1">
          <mxGeometry x="310" y="185" width="50" height="50" as="geometry" />
        </mxCell>
        <mxCell id="fmsruUyn6PjPIy5HjAz1-4" value="" style="verticalLabelPosition=bottom;html=1;verticalAlign=top;align=center;strokeColor=none;fillColor=#00BEF2;shape=mxgraph.azure.visual_studio_online;" parent="1" vertex="1">
          <mxGeometry x="210" y="185" width="20" height="15" as="geometry" />
        </mxCell>
        <mxCell id="fmsruUyn6PjPIy5HjAz1-5" value="" style="verticalLabelPosition=bottom;html=1;verticalAlign=top;align=center;strokeColor=none;fillColor=#00BEF2;shape=mxgraph.azure.visual_studio_online;" parent="1" vertex="1">
          <mxGeometry x="440" y="185" width="20" height="15" as="geometry" />
        </mxCell>
        <mxCell id="fmsruUyn6PjPIy5HjAz1-8" style="edgeStyle=orthogonalEdgeStyle;rounded=0;orthogonalLoop=1;jettySize=auto;html=1;entryX=0;entryY=0.5;entryDx=0;entryDy=0;" parent="1" source="fmsruUyn6PjPIy5HjAz1-6" target="fmsruUyn6PjPIy5HjAz1-3" edge="1">
          <mxGeometry relative="1" as="geometry" />
        </mxCell>
        <mxCell id="fmsruUyn6PjPIy5HjAz1-20" style="edgeStyle=orthogonalEdgeStyle;rounded=0;orthogonalLoop=1;jettySize=auto;html=1;entryX=0;entryY=0.5;entryDx=0;entryDy=0;" parent="1" source="fmsruUyn6PjPIy5HjAz1-6" target="fmsruUyn6PjPIy5HjAz1-15" edge="1">
          <mxGeometry relative="1" as="geometry">
            <Array as="points">
              <mxPoint x="250" y="110" />
            </Array>
          </mxGeometry>
        </mxCell>
        <mxCell id="fmsruUyn6PjPIy5HjAz1-6" value="&lt;font style=&quot;font-size: 6px;&quot;&gt;terraform&lt;/font&gt;" style="ellipse;whiteSpace=wrap;html=1;" parent="1" vertex="1">
          <mxGeometry x="240" y="200" width="30" height="20" as="geometry" />
        </mxCell>
        <mxCell id="fmsruUyn6PjPIy5HjAz1-12" style="edgeStyle=orthogonalEdgeStyle;rounded=0;orthogonalLoop=1;jettySize=auto;html=1;entryX=1;entryY=0.5;entryDx=0;entryDy=0;" parent="1" source="fmsruUyn6PjPIy5HjAz1-7" target="fmsruUyn6PjPIy5HjAz1-3" edge="1">
          <mxGeometry relative="1" as="geometry" />
        </mxCell>
        <mxCell id="fmsruUyn6PjPIy5HjAz1-21" style="edgeStyle=orthogonalEdgeStyle;rounded=0;orthogonalLoop=1;jettySize=auto;html=1;entryX=1;entryY=0.5;entryDx=0;entryDy=0;" parent="1" source="fmsruUyn6PjPIy5HjAz1-7" target="fmsruUyn6PjPIy5HjAz1-15" edge="1">
          <mxGeometry relative="1" as="geometry">
            <Array as="points">
              <mxPoint x="410" y="110" />
            </Array>
          </mxGeometry>
        </mxCell>
        <mxCell id="fmsruUyn6PjPIy5HjAz1-7" value="&lt;font style=&quot;font-size: 6px;&quot;&gt;terraform&lt;/font&gt;" style="ellipse;whiteSpace=wrap;html=1;" parent="1" vertex="1">
          <mxGeometry x="400" y="200" width="30" height="20" as="geometry" />
        </mxCell>
        <mxCell id="fmsruUyn6PjPIy5HjAz1-13" value="&lt;font style=&quot;font-size: 9px;&quot;&gt;person1&lt;/font&gt;" style="text;html=1;align=center;verticalAlign=middle;resizable=0;points=[];autosize=1;strokeColor=none;fillColor=none;" parent="1" vertex="1">
          <mxGeometry x="210" y="240" width="60" height="30" as="geometry" />
        </mxCell>
        <mxCell id="fmsruUyn6PjPIy5HjAz1-14" value="&lt;font style=&quot;font-size: 8px;&quot;&gt;person2&lt;/font&gt;" style="text;html=1;align=center;verticalAlign=middle;resizable=0;points=[];autosize=1;strokeColor=none;fillColor=none;" parent="1" vertex="1">
          <mxGeometry x="400" y="240" width="50" height="30" as="geometry" />
        </mxCell>
        <mxCell id="fmsruUyn6PjPIy5HjAz1-15" value="Remote state" style="rounded=0;whiteSpace=wrap;html=1;" parent="1" vertex="1">
          <mxGeometry x="290" y="90" width="90" height="40" as="geometry" />
        </mxCell>
        <mxCell id="fmsruUyn6PjPIy5HjAz1-22" value="&lt;font style=&quot;font-size: 8px;&quot;&gt;.lockfile, terraform.tfstate&lt;/font&gt;" style="text;html=1;align=center;verticalAlign=middle;resizable=0;points=[];autosize=1;strokeColor=none;fillColor=none;" parent="1" vertex="1">
          <mxGeometry x="280" y="120" width="110" height="30" as="geometry" />
        </mxCell>
        <UserObject label="https://github.com/balu3014" link="https://github.com/balu3014" id="q39h4FeVytVuFilnU690-1">
          <mxCell style="text;whiteSpace=wrap;" vertex="1" parent="1">
            <mxGeometry x="260" y="300" width="180" height="40" as="geometry" />
          </mxCell>
        </UserObject>
      </root>
    </mxGraphModel>
  </diagram>
</mxfile>
